<?xml version="1.0" standalone="no"?>
<!DOCTYPE svg PUBLIC "-//W3C//DTD SVG 20010904//EN"
 "http://www.w3.org/TR/2001/REC-SVG-20010904/DTD/svg10.dtd">
<svg version="1.0" xmlns="http://www.w3.org/2000/svg"
 width="700.000000pt" height="700.000000pt" viewBox="0 0 700.000000 700.000000"
 preserveAspectRatio="xMidYMid meet">
<metadata>
Created by potrace 1.11, written by Peter Selinger 2001-2013
</metadata>
<g transform="translate(0.000000,700.000000) scale(0.100000,-0.100000)"
fill="#000000" stroke="none">
<path d="M3498 6705 c-2 -1 -34 -5 -71 -9 -829 -78 -1561 -651 -1840 -1441
-93 -265 -122 -438 -122 -735 0 -176 6 -259 25 -360 6 -30 13 -68 16 -85 11
-63 53 -213 82 -290 73 -198 165 -370 326 -605 379 -555 526 -830 555 -1032 5
-35 9 -274 10 -533 1 -259 4 -483 6 -500 10 -53 55 -134 95 -167 78 -67 108
-72 458 -73 171 0 312 -2 313 -5 0 -3 3 -18 5 -35 8 -53 62 -151 99 -180 112
-85 250 -91 361 -14 49 34 99 108 110 164 5 22 9 43 10 48 1 4 2 10 3 15 0 4
135 7 299 7 351 -1 395 5 471 70 33 28 76 94 90 137 9 28 13 172 13 529 1 517
4 554 48 689 23 68 128 285 161 332 11 14 19 28 19 31 0 7 99 165 156 251 21
32 50 76 64 97 14 21 78 117 143 212 123 181 150 227 216 362 97 202 176 470
196 670 4 33 8 71 11 85 5 30 5 322 0 365 -2 17 -6 57 -10 90 -24 210 -106
481 -206 682 -146 297 -338 538 -599 752 -141 116 -389 259 -581 334 -142 56
-378 113 -540 132 -60 7 -386 15 -392 10z m302 -590 c36 -3 79 -8 95 -11 101
-19 125 -24 175 -37 93 -25 170 -55 295 -118 252 -125 457 -307 618 -547 131
-196 211 -410 251 -665 13 -88 15 -371 2 -432 -3 -16 -13 -65 -22 -108 -40
-208 -131 -407 -299 -657 -261 -388 -295 -439 -295 -444 0 -3 -13 -24 -29 -48
-107 -159 -238 -424 -293 -592 l-39 -122 -160 -1 -159 0 -1 26 c0 14 -1 161
-2 326 l-3 300 -28 58 c-52 107 -169 173 -284 161 -96 -10 -163 -48 -213 -120
-50 -74 -57 -128 -55 -444 1 -157 0 -290 -1 -295 -2 -7 -61 -11 -165 -10 -149
0 -161 1 -164 19 -5 35 -57 182 -95 269 -42 94 -92 191 -178 340 -40 70 -127
204 -303 468 -186 279 -265 421 -313 559 -41 121 -44 131 -59 215 -25 132 -28
165 -30 291 -4 203 24 377 93 569 176 491 588 868 1099 1006 42 11 93 23 112
25 19 3 58 9 85 13 28 5 77 9 110 10 33 1 61 4 63 5 3 4 101 -1 192 -9z m430
-4510 l0 -144 -147 -3 c-82 -2 -344 -2 -584 0 l-436 2 0 145 0 145 583 0 584
0 0 -145z"/>
<path d="M3605 5388 c-40 -11 -58 -26 -84 -68 -25 -41 -26 -76 -6 -127 20 -51
69 -82 136 -88 105 -10 140 -16 167 -26 239 -96 377 -271 397 -504 4 -44 11
-88 16 -100 46 -108 201 -117 259 -14 20 37 22 50 17 128 -11 155 -60 297
-150 428 -47 69 -137 165 -187 200 -14 9 -30 22 -37 29 -24 23 -199 103 -258
118 -107 27 -225 38 -270 24z"/>
</g>
</svg>
