<!-- Generated by IcoMoon.io -->
<svg version="1.1" xmlns="http://www.w3.org/2000/svg" width="768" height="768" viewBox="0 0 768 768">
    <path fill="#FFA500" d="M400 176c-8.832 0-16 7.168-16 16s7.168 16 16 16c34.656 0 62.848 28.192 62.848 62.848 0 8.832 7.168 16 16 16s16-7.168 16-16c0-52.288-42.56-94.848-94.848-94.848z"></path>
    <path fill="#FFA500" d="M400 32c-132.352 0-240 107.648-240 240 0 47.552 14.080 93.504 40.768 133.28 0.736 1.504 1.568 2.944 2.56 4.32 58.4 83.392 68.672 109.76 68.672 134.4v96c0 17.664 14.336 32 32 32h64c0 8.32 3.52 16.64 9.28 22.72 6.080 5.76 14.4 9.28 22.72 9.28s16.64-3.52 22.72-9.28c5.76-6.080 9.28-14.4 9.28-22.72h64c17.664 0 32-14.336 32-32v-96c0-25.024 10.208-51.52 68.224-134.368 28.64-40.8 43.776-88.384 43.776-137.632 0-132.352-107.648-240-240-240zM464 608h-128v-32h128v32zM543.84 372.896c-46.912 66.976-68.576 105.248-76.32 139.104h-35.52v-64c0-17.664-14.336-32-32-32s-32 14.336-32 32v64h-35.616c-7.68-32.96-28.736-70.4-73.792-135.040-0.704-1.408-1.536-2.784-2.464-4.128-21.024-29.888-32.128-64.768-32.128-100.832 0-97.056 78.944-176 176-176s176 78.944 176 176c0 36.032-11.104 70.912-32.16 100.896z"></path>
</svg>
